<?xml version="1.0" standalone="no"?>
<svg xmlns:xlink="http://www.w3.org/1999/xlink" id="wave" style="transform:rotate(0deg); transition: 0.3s" viewBox="0 0 1440 240" version="1.1" xmlns="http://www.w3.org/2000/svg"><defs><linearGradient id="sw-gradient-0" x1="0" x2="0" y1="1" y2="0"><stop stop-color="rgba(255, 12, 113, 1)" offset="0%"/><stop stop-color="rgba(255, 81, 12, 1)" offset="100%"/></linearGradient></defs><path style="transform:translate(0, 0px); opacity:1" fill="url(#sw-gradient-0)" d="M0,48L60,68C120,88,240,128,360,124C480,120,600,72,720,80C840,88,960,152,1080,172C1200,192,1320,168,1440,156C1560,144,1680,144,1800,136C1920,128,2040,112,2160,112C2280,112,2400,128,2520,120C2640,112,2760,80,2880,72C3000,64,3120,80,3240,96C3360,112,3480,128,3600,116C3720,104,3840,64,3960,40C4080,16,4200,8,4320,40C4440,72,4560,144,4680,156C4800,168,4920,120,5040,116C5160,112,5280,152,5400,164C5520,176,5640,160,5760,144C5880,128,6000,112,6120,96C6240,80,6360,64,6480,84C6600,104,6720,160,6840,160C6960,160,7080,104,7200,80C7320,56,7440,64,7560,92C7680,120,7800,168,7920,168C8040,168,8160,120,8280,92C8400,64,8520,56,8580,52L8640,48L8640,240L8580,240C8520,240,8400,240,8280,240C8160,240,8040,240,7920,240C7800,240,7680,240,7560,240C7440,240,7320,240,7200,240C7080,240,6960,240,6840,240C6720,240,6600,240,6480,240C6360,240,6240,240,6120,240C6000,240,5880,240,5760,240C5640,240,5520,240,5400,240C5280,240,5160,240,5040,240C4920,240,4800,240,4680,240C4560,240,4440,240,4320,240C4200,240,4080,240,3960,240C3840,240,3720,240,3600,240C3480,240,3360,240,3240,240C3120,240,3000,240,2880,240C2760,240,2640,240,2520,240C2400,240,2280,240,2160,240C2040,240,1920,240,1800,240C1680,240,1560,240,1440,240C1320,240,1200,240,1080,240C960,240,840,240,720,240C600,240,480,240,360,240C240,240,120,240,60,240L0,240Z"/><defs><linearGradient id="sw-gradient-1" x1="0" x2="0" y1="1" y2="0"><stop stop-color="rgba(255, 12, 113, 1)" offset="0%"/><stop stop-color="rgba(255, 81, 12, 1)" offset="100%"/></linearGradient></defs><path style="transform:translate(0, 50px); opacity:0.9" fill="url(#sw-gradient-1)" d="M0,144L60,152C120,160,240,176,360,152C480,128,600,64,720,60C840,56,960,112,1080,148C1200,184,1320,200,1440,208C1560,216,1680,216,1800,180C1920,144,2040,72,2160,68C2280,64,2400,128,2520,136C2640,144,2760,96,2880,96C3000,96,3120,144,3240,140C3360,136,3480,80,3600,84C3720,88,3840,152,3960,176C4080,200,4200,184,4320,148C4440,112,4560,56,4680,60C4800,64,4920,128,5040,156C5160,184,5280,176,5400,172C5520,168,5640,168,5760,140C5880,112,6000,56,6120,28C6240,0,6360,0,6480,0C6600,0,6720,0,6840,0C6960,0,7080,0,7200,36C7320,72,7440,144,7560,144C7680,144,7800,72,7920,68C8040,64,8160,128,8280,132C8400,136,8520,80,8580,52L8640,24L8640,240L8580,240C8520,240,8400,240,8280,240C8160,240,8040,240,7920,240C7800,240,7680,240,7560,240C7440,240,7320,240,7200,240C7080,240,6960,240,6840,240C6720,240,6600,240,6480,240C6360,240,6240,240,6120,240C6000,240,5880,240,5760,240C5640,240,5520,240,5400,240C5280,240,5160,240,5040,240C4920,240,4800,240,4680,240C4560,240,4440,240,4320,240C4200,240,4080,240,3960,240C3840,240,3720,240,3600,240C3480,240,3360,240,3240,240C3120,240,3000,240,2880,240C2760,240,2640,240,2520,240C2400,240,2280,240,2160,240C2040,240,1920,240,1800,240C1680,240,1560,240,1440,240C1320,240,1200,240,1080,240C960,240,840,240,720,240C600,240,480,240,360,240C240,240,120,240,60,240L0,240Z"/><defs><linearGradient id="sw-gradient-2" x1="0" x2="0" y1="1" y2="0"><stop stop-color="rgba(255, 12, 113, 1)" offset="0%"/><stop stop-color="rgba(255, 179, 11, 1)" offset="100%"/></linearGradient></defs><path style="transform:translate(0, 100px); opacity:0.8" fill="url(#sw-gradient-2)" d="M0,192L60,172C120,152,240,112,360,84C480,56,600,40,720,56C840,72,960,120,1080,116C1200,112,1320,56,1440,48C1560,40,1680,80,1800,92C1920,104,2040,88,2160,92C2280,96,2400,120,2520,112C2640,104,2760,64,2880,64C3000,64,3120,104,3240,108C3360,112,3480,80,3600,60C3720,40,3840,32,3960,24C4080,16,4200,8,4320,32C4440,56,4560,112,4680,116C4800,120,4920,72,5040,64C5160,56,5280,88,5400,112C5520,136,5640,152,5760,160C5880,168,6000,168,6120,176C6240,184,6360,200,6480,204C6600,208,6720,200,6840,196C6960,192,7080,192,7200,164C7320,136,7440,80,7560,68C7680,56,7800,88,7920,96C8040,104,8160,88,8280,88C8400,88,8520,104,8580,112L8640,120L8640,240L8580,240C8520,240,8400,240,8280,240C8160,240,8040,240,7920,240C7800,240,7680,240,7560,240C7440,240,7320,240,7200,240C7080,240,6960,240,6840,240C6720,240,6600,240,6480,240C6360,240,6240,240,6120,240C6000,240,5880,240,5760,240C5640,240,5520,240,5400,240C5280,240,5160,240,5040,240C4920,240,4800,240,4680,240C4560,240,4440,240,4320,240C4200,240,4080,240,3960,240C3840,240,3720,240,3600,240C3480,240,3360,240,3240,240C3120,240,3000,240,2880,240C2760,240,2640,240,2520,240C2400,240,2280,240,2160,240C2040,240,1920,240,1800,240C1680,240,1560,240,1440,240C1320,240,1200,240,1080,240C960,240,840,240,720,240C600,240,480,240,360,240C240,240,120,240,60,240L0,240Z"/></svg>